# xmcd
#
# Track frame offsets: 
#        225
#        18833
#        39455
#        51241
#        65720
#        95558
#        108913
#        122721
#        139817
#        170146
#        185885
#        201141
#        213540
#        228991
#        245185
#        256797
#
# Disc length: 3876 seconds
#
# Revision: 0
# Processed by: cddbd v1.5.2PL0 Copyright (c) Steve Scherf et al.
# Submitted via: ExactAudioCopy v0.95a5
#
DISCID=f30f2110
DTITLE=NIRVANA - MOIST VAGINA
DYEAR=1900
DGENRE=Grunge
TTITLE0=DRAIN YOU[NEVER MIND SESSION]
TTITLE1=ANEURYSM[NEVER MIND SESSION]
TTITLE2=DUMB[NEVER MIND SESSION]
TTITLE3=SOMETHING IN THE WAY[NEVER MIND SESSION]
TTITLE4=ENDLESS-NAMELESS[NEVER MIND SESSION]
TTITLE5=CURMUDGEON
TTITLE6=EVEN IN HIS YOUTH
TTITLE7=D-7
TTITLE8=ENDLESS-NAMELESS
TTITLE9=PAY TO PLAY
TTITLE10=OH THE GUILT
TTITLE11=I HATE MYSELF AND I WANT TO DIE
TTITLE12=VERSE, CHORUS,VERSE
TTITLE13=MOIST VAGINA
TTITLE14=MARIGOLD
TTITLE15=GALLONS OF RUBBING ALCOHOL FLOW THROUGH THE STRIP
EXTD=
EXTT0=
EXTT1=
EXTT2=
EXTT3=
EXTT4=
EXTT5=
EXTT6=
EXTT7=
EXTT8=
EXTT9=
EXTT10=
EXTT11=
EXTT12=
EXTT13=
EXTT14=
EXTT15=
PLAYORDER=
